<?xml version="1.0" encoding="utf-8"?>
<!-- Svg Vector Icons : http://www.onlinewebfonts.com/icon -->
<!DOCTYPE svg PUBLIC "-//W3C//DTD SVG 1.1//EN" "http://www.w3.org/Graphics/SVG/1.1/DTD/svg11.dtd">
<svg version="1.1" xmlns="http://www.w3.org/2000/svg" xmlns:xlink="http://www.w3.org/1999/xlink" x="0px" y="0px" viewBox="0 0 1000 1000" enable-background="new 0 0 1000 1000" xml:space="preserve">
<metadata> Svg Vector Icons : http://www.onlinewebfonts.com/icon </metadata>
<g><g><path d="M983.9,255.6c-4-11.6-9.8-21.7-17.1-29.6c-7.2-7.9-15.9-13.8-25.6-17c-4.1-1.4-8.5-2.2-12.9-2.6c-1-0.1-1.9-0.2-2.8-0.3c2.8-1.2,5.2-2.4,7.4-3.6c24-13.4,14.4-29.4-28.4-39.5l-158.4-37L587.7,89c-53.6-12.5-138.8-10.9-190.2,3.6l-152.1,42.9L93.4,178.4c-22.3,6.3-34.6,14-36.9,21.7c-0.9,3-0.2,6.1,1.9,9c-4.4,1.5-8.6,3.6-12.6,6.2c-4.5,3-8.8,6.5-12.6,10.7c-7.2,7.9-13.1,18-17.1,29.6c-4,11.6-6.1,24.9-6.1,39.3l1.1,187.7l1.3,219.3c0.1,14,2.4,27.8,6.4,41c4.1,13.2,9.9,25.6,17.1,36.7c7.2,11.1,15.8,20.9,25.3,28.6c9.5,7.8,20,13.5,31,16.6l296.4,83.1l31.1,8.7c11.8,3.3,23.1,3.5,33.4,1.1c10.4-2.4,19.8-7.5,27.8-14.8c4.8-4.4,8.8-9.8,12.5-15.7c2.4-4,4.8-8,6.7-12.6c0,0,0-0.1,0-0.1c0,0,0,0.1,0,0.1c1.8,4.6,4.2,8.6,6.7,12.6c3.6,5.9,7.7,11.3,12.5,15.7c8,7.3,17.4,12.4,27.8,14.8c10.4,2.4,21.7,2.2,33.5-1.1l31.1-8.7l296.4-83.1c11-3.1,21.5-8.8,31-16.6c9.5-7.8,18.1-17.5,25.3-28.6c7.2-11.1,13-23.6,17.1-36.7c4.1-13.1,6.3-27,6.4-41l1.3-219.3l1.1-187.7C990.1,280.5,987.9,267.3,983.9,255.6z M152.7,192.3l304.2-85.8c19.9-5.6,53-6.3,73.9-1.4l316.7,74c20.7,4.8,21.4,13.4,1.5,19l-304.2,85.8c-19.9,5.6-53,6.2-73.8,1.4l-316.7-74C133.4,206.5,132.8,197.9,152.7,192.3z M481.1,828.2c-0.1,10.2-1.9,19.5-5.1,27.5c-3.2,8-7.7,14.7-13.3,19.9c-5.6,5.2-12.1,8.7-19.4,10.5c-7.2,1.7-15.2,1.6-23.4-0.7L92.1,794.5c-7.7-2.1-15.1-6.1-21.7-11.6c-6.7-5.4-12.7-12.3-17.8-20c-5.1-7.8-9.2-16.6-12-25.8c-2.8-9.2-4.5-19-4.5-28.8l-2-407.9c0-10.1,1.5-19.4,4.3-27.5c2.8-8.1,7-15.2,12-20.7c5.1-5.6,11.2-9.6,18-11.9c6.8-2.3,14.3-2.7,22.2-1l335.2,73c8.5,1.8,16.5,5.8,23.8,11.3c7.3,5.5,13.9,12.6,19.4,20.8c5.5,8.2,9.9,17.5,13,27.3c3,9.9,4.6,20.3,4.5,30.9L481.1,828.2z M963.9,708.3c-0.1,9.8-1.7,19.6-4.5,28.8c-2.9,9.3-7,18-12,25.8c-5.1,7.8-11.1,14.6-17.8,20c-6.7,5.4-14,9.5-21.7,11.6L580,885.4c-8.3,2.3-16.2,2.4-23.4,0.7c-7.2-1.7-13.8-5.3-19.4-10.5c-5.5-5.2-10.1-11.9-13.3-19.9c-3.2-8-5-17.3-5.1-27.5l-5.3-425.8c-0.1-10.6,1.5-21,4.5-30.9s7.4-19.1,12.9-27.3c5.5-8.2,12.1-15.3,19.4-20.8c7.3-5.5,15.4-9.4,23.8-11.3l335.2-73c7.9-1.7,15.4-1.3,22.2,1c6.8,2.3,12.9,6.3,18,11.9c5.1,5.6,9.2,12.6,12,20.7c2.8,8.2,4.4,17.4,4.3,27.5L963.9,708.3z"/></g><g></g><g></g><g></g><g></g><g></g><g></g><g></g><g></g><g></g><g></g><g></g><g></g><g></g><g></g><g></g></g>
</svg>