<svg height="464pt" viewBox="0 -3 464 464" width="464pt" xmlns="http://www.w3.org/2000/svg"><path d="m216 435.71875v-51.71875c0-2.121094.84375-4.15625 2.34375-5.65625l114.34375-114.34375h-265.375l114.34375 114.34375c1.5 1.5 2.34375 3.535156 2.34375 5.65625v73.046875zm0 0"/><path d="m48 216h304c4.417969 0 8 3.582031 8 8v16c0 4.417969-3.582031 8-8 8h-304c-4.417969 0-8-3.582031-8-8v-16c0-4.417969 3.582031-8 8-8zm0 0"/><path d="m161.601562 91.023438-23.839843-23.871094-22.609375 22.609375 23.871094 23.839843-2.886719 5.253907c-1.976563 3.691406-3.597657 7.5625-4.839844 11.558593l-1.785156 5.585938h-33.511719v32h33.511719l1.785156 5.550781c1.242187 4 2.863281 7.871094 4.839844 11.5625l2.886719 5.253907-9.597657 9.601562h141.183594l-9.601563-9.601562 2.886719-5.253907c1.976563-3.691406 3.597657-7.5625 4.839844-11.5625l1.753906-5.550781h33.511719v-32h-33.511719l-1.785156-5.550781c-1.242187-4-2.863281-7.871094-4.839844-11.5625l-2.886719-5.253907 23.871094-23.871093-22.609375-22.609375-23.839843 23.871094-5.253907-2.886719c-3.691406-1.964844-7.5625-3.570313-11.558593-4.800781l-5.585938-1.824219v-33.511719h-32v33.511719l-5.550781 1.785156c-3.996094 1.230469-7.867188 2.835937-11.5625 4.800781zm38.398438 20.976562c22.089844 0 40 17.910156 40 40s-17.910156 40-40 40-40-17.910156-40-40c.027344-22.082031 17.917969-39.972656 40-40zm0 0"/><path d="m224 152c0 13.253906-10.746094 24-24 24s-24-10.746094-24-24 10.746094-24 24-24 24 10.746094 24 24zm0 0"/><path d="m439.601562 130.929688 11.328126-11.328126-17.464844-17.464843 2.726562-5.207031c.550782-1.023438 1-2.09375 1.34375-3.203126l1.710938-5.726562h24.753906v-16h-24.753906l-1.710938-5.703125c-.34375-1.109375-.792968-2.179687-1.34375-3.199219l-2.726562-5.210937 17.464844-17.488281-11.328126-11.328126-17.464843 17.464844-5.207031-2.726562c-1.023438-.550782-2.09375-1-3.203126-1.34375l-5.726562-1.710938v-24.753906h-16v24.753906l-5.703125 1.710938c-1.109375.34375-2.179687.792968-3.199219 1.34375l-5.210937 2.726562-17.488281-17.464844-11.328126 11.328126 17.464844 17.464843-2.726562 5.207031c-.550782 1.023438-1 2.09375-1.34375 3.203126l-1.710938 5.726562h-24.753906v16h24.753906l1.710938 5.703125c.34375 1.109375.792968 2.179687 1.34375 3.199219l2.726562 5.210937-17.464844 17.488281 11.328126 11.328126 17.464843-17.464844 5.207031 2.726562c1.023438.550782 2.09375 1 3.203126 1.34375l5.703124 1.710938v24.753906h16v-24.753906l5.703126-1.710938c1.109374-.34375 2.179687-.792968 3.199218-1.34375l5.210938-2.726562zm-39.601562-26.929688c-13.253906 0-24-10.746094-24-24s10.746094-24 24-24 24 10.746094 24 24-10.746094 24-24 24zm0 0"/><path d="m408 80c0 4.417969-3.582031 8-8 8s-8-3.582031-8-8 3.582031-8 8-8 8 3.582031 8 8zm0 0"/><path d="m96 56v-16h-17.136719c-.742187-2.863281-1.886719-5.609375-3.398437-8.152344l12.136718-12.136718-11.3125-11.3125-12.136718 12.136718c-2.542969-1.511718-5.289063-2.65625-8.152344-3.398437v-17.136719h-16v17.136719c-2.863281.742187-5.609375 1.886719-8.152344 3.398437l-12.136718-12.136718-11.3125 11.3125 12.136718 12.136718c-1.511718 2.542969-2.65625 5.289063-3.398437 8.152344h-17.136719v16h17.136719c.742187 2.863281 1.886719 5.609375 3.398437 8.152344l-12.136718 12.136718 11.3125 11.3125 12.136718-12.136718c2.542969 1.511718 5.289063 2.65625 8.152344 3.398437v17.136719h16v-17.136719c2.863281-.742187 5.609375-1.886719 8.152344-3.398437l12.136718 12.136718 11.3125-11.3125-12.136718-12.136718c1.511718-2.542969 2.65625-5.289063 3.398437-8.152344zm0 0"/></svg>